<svg id="svg" version="1.1"
    xmlns="http://www.w3.org/2000/svg"
    xmlns:xlink="http://www.w3.org/1999/xlink" width="400" height="400" viewBox="0, 0, 400,400">
    <g id="svgg">
        <path id="lines" d="M100.688 23.033 C 97.153 23.737,92.050 25.357,90.132 26.385 C 89.296 26.833,88.318 27.200,87.960 27.200 C 87.601 27.200,86.879 27.528,86.354 27.929 C 85.829 28.329,84.230 29.357,82.800 30.213 C 63.588 41.704,52.934 67.002,59.552 85.412 C 61.900 91.943,62.437 93.064,64.522 95.800 C 74.777 109.254,92.317 111.819,103.133 101.445 C 111.762 93.169,110.341 73.045,100.900 69.828 C 96.974 68.490,93.261 69.472,91.312 72.365 C 89.524 75.018,90.413 76.774,92.581 74.870 C 96.772 71.191,104.989 77.509,102.589 82.566 C 99.110 89.899,85.507 87.211,81.679 78.434 C 79.594 73.655,81.565 65.193,85.673 61.278 C 100.151 47.479,120.032 62.276,121.424 87.887 C 121.720 93.330,121.203 99.352,120.184 102.321 L 119.676 103.800 115.338 104.255 C 110.425 104.769,105.826 105.777,104.513 106.627 C 104.025 106.943,102.673 107.558,101.508 107.994 C 86.108 113.756,73.141 129.521,71.638 144.308 C 71.206 148.566,71.047 149.094,68.795 153.810 C 61.886 168.277,60.107 181.328,63.220 194.710 C 64.152 198.718,63.920 199.647,60.971 203.723 C 50.768 217.820,46.941 224.423,42.994 234.736 C 39.932 242.740,38.905 250.521,40.029 257.200 C 40.232 258.410,40.558 260.570,40.752 262.000 C 40.946 263.430,41.486 265.545,41.953 266.700 C 42.419 267.855,43.152 269.681,43.582 270.758 C 46.615 278.346,57.587 291.516,67.612 299.600 C 69.658 301.250,72.157 303.326,73.166 304.214 C 74.175 305.102,76.080 306.628,77.400 307.604 C 87.033 314.733,87.893 315.960,86.617 320.756 C 85.966 323.200,79.277 336.674,77.662 338.793 C 77.078 339.560,76.110 340.953,75.512 341.889 C 74.020 344.222,69.185 349.945,63.254 356.400 C 55.057 365.319,48.581 373.285,46.995 376.400 C 46.602 377.170,45.871 378.340,45.370 379.000 C 44.869 379.660,42.946 383.170,41.095 386.800 C 38.261 392.361,37.274 394.721,35.781 399.500 C 35.665 399.872,36.471 400.000,38.936 400.000 L 42.246 400.000 42.907 398.500 C 43.271 397.675,44.269 395.326,45.125 393.280 C 45.982 391.233,47.474 388.297,48.441 386.754 C 49.409 385.212,51.181 382.386,52.381 380.475 C 55.265 375.878,59.305 370.618,63.326 366.222 C 69.705 359.249,70.662 358.185,71.825 356.763 C 72.471 355.973,74.274 353.813,75.832 351.963 C 82.259 344.331,85.169 340.074,88.060 334.077 C 94.917 319.851,93.892 320.731,99.400 324.331 C 101.380 325.624,105.662 328.421,108.915 330.546 C 112.168 332.671,115.858 334.917,117.115 335.539 C 118.372 336.160,121.157 337.613,123.305 338.768 C 133.412 344.201,145.147 347.111,141.470 343.273 C 139.524 341.242,126.733 333.022,120.872 330.035 C 119.921 329.551,116.444 327.320,113.144 325.077 C 109.845 322.835,105.943 320.228,104.473 319.284 C 93.860 312.472,68.198 292.010,62.361 285.704 C 47.276 269.411,43.178 254.867,48.807 237.600 C 49.998 233.947,55.149 223.488,56.983 221.000 C 57.469 220.340,59.234 217.640,60.905 215.000 C 64.291 209.650,66.818 206.831,67.467 207.682 C 67.684 207.967,68.375 209.100,69.001 210.200 C 86.536 241.002,133.546 242.977,155.756 213.846 C 167.321 198.678,170.400 176.341,163.249 159.498 C 162.852 158.564,162.411 157.201,162.268 156.468 C 160.718 148.538,150.632 135.671,141.138 129.510 C 123.657 118.167,99.662 121.150,82.020 136.859 C 79.241 139.334,78.627 139.392,79.434 137.103 C 81.825 130.326,90.121 120.697,96.400 117.409 C 111.769 109.363,122.749 108.794,138.753 115.215 C 143.425 117.089,144.907 117.899,150.354 121.554 C 155.182 124.794,162.156 131.806,166.719 138.008 C 168.617 140.587,172.740 147.246,174.887 151.200 C 175.903 153.070,177.224 155.050,177.823 155.600 L 178.912 156.600 178.684 154.573 C 178.213 150.400,173.094 136.855,171.555 135.712 C 171.194 135.443,170.294 134.273,169.556 133.112 C 165.141 126.168,156.307 117.244,150.835 114.200 C 150.044 113.760,148.858 113.023,148.199 112.562 C 144.224 109.781,134.470 105.966,129.867 105.391 C 126.832 105.012,126.634 104.688,126.999 100.697 C 129.075 77.977,123.860 63.214,110.551 54.136 C 102.999 48.984,89.202 51.085,82.476 58.410 C 72.737 69.016,74.538 84.282,86.200 89.986 C 89.344 91.524,94.749 92.118,97.566 91.235 C 101.815 89.904,102.735 90.689,101.025 94.185 C 98.555 99.234,91.143 102.277,84.037 101.161 C 74.410 99.648,65.519 89.322,64.007 77.899 C 63.291 72.489,63.288 72.341,63.829 68.600 C 67.148 45.642,87.350 28.131,109.600 28.925 C 128.194 29.589,145.480 36.962,165.947 52.959 C 168.228 54.741,171.031 56.920,172.176 57.800 C 173.320 58.680,175.922 60.930,177.957 62.800 C 179.992 64.670,181.990 66.380,182.397 66.600 C 182.803 66.820,184.195 67.990,185.490 69.200 C 186.784 70.410,189.633 72.930,191.820 74.800 C 194.007 76.670,196.967 79.372,198.398 80.805 C 199.829 82.237,202.440 84.733,204.200 86.352 C 205.960 87.970,208.929 90.757,210.797 92.547 C 212.665 94.336,214.825 96.267,215.597 96.837 C 216.369 97.408,218.277 99.118,219.838 100.637 C 224.122 104.808,227.321 107.412,231.492 110.121 L 235.267 112.574 235.069 114.187 C 234.960 115.074,234.402 118.770,233.829 122.400 C 231.588 136.598,232.207 159.255,235.189 172.124 C 235.402 173.046,236.034 175.780,236.593 178.200 C 237.685 182.928,238.239 184.866,240.863 193.130 C 244.387 204.228,245.140 200.556,241.792 188.600 C 235.525 166.220,233.531 141.075,236.591 123.012 C 237.964 114.906,238.178 114.629,242.037 115.928 C 243.227 116.328,245.280 116.897,246.600 117.192 C 249.847 117.918,249.817 117.851,248.668 121.861 C 246.883 128.092,245.623 138.165,246.381 140.153 C 247.250 142.432,248.915 139.680,252.194 130.544 C 261.263 105.282,275.509 95.249,294.089 101.038 C 304.926 104.414,316.369 114.829,317.836 122.653 C 318.140 124.270,317.957 124.278,314.600 122.783 C 303.401 117.799,290.454 117.457,279.041 121.846 C 274.979 123.408,274.676 123.363,276.156 121.422 C 279.410 117.156,285.585 114.773,294.600 114.304 C 300.329 114.006,293.866 111.235,287.400 111.217 C 274.622 111.182,265.651 120.919,257.935 143.200 C 252.729 158.232,253.916 180.221,260.662 193.705 C 261.406 195.192,262.384 197.397,262.836 198.605 C 268.684 214.235,289.226 227.063,306.600 225.935 C 317.982 225.196,326.898 220.994,335.643 212.249 L 339.213 208.679 341.706 211.257 C 357.318 227.394,359.017 246.867,346.026 260.768 C 344.912 261.960,344.000 263.069,344.000 263.233 C 344.000 263.396,341.776 265.511,339.057 267.933 C 332.163 274.075,315.821 290.805,312.993 294.617 C 312.347 295.488,310.894 297.280,309.764 298.600 C 307.875 300.807,300.163 310.404,296.092 315.614 C 295.153 316.816,292.948 319.510,291.194 321.600 C 289.439 323.690,287.040 326.570,285.863 328.000 C 281.896 332.820,273.466 340.272,267.000 344.675 C 238.275 364.237,211.752 368.642,180.000 359.123 C 169.710 356.038,169.460 355.973,168.403 356.090 C 164.731 356.496,171.256 361.295,180.400 364.912 C 199.678 372.539,220.784 372.775,241.724 365.599 C 249.382 362.975,249.335 362.973,249.051 365.900 C 248.929 367.165,248.708 372.675,248.561 378.145 C 248.314 387.367,248.447 390.447,249.435 398.300 L 249.649 400.000 252.825 400.000 C 256.512 400.000,256.262 400.546,255.389 394.403 C 254.446 387.771,254.222 381.613,254.759 377.080 C 255.689 369.215,256.523 363.779,257.159 361.420 L 257.801 359.039 262.201 355.944 C 269.536 350.783,275.124 346.389,281.017 341.151 C 282.161 340.133,283.255 339.233,283.448 339.151 C 284.090 338.876,294.595 327.453,297.197 324.200 C 298.605 322.440,300.774 319.830,302.016 318.400 C 303.259 316.970,304.798 315.079,305.438 314.199 C 306.077 313.318,308.400 310.373,310.600 307.654 C 312.800 304.934,315.500 301.595,316.600 300.232 C 323.595 291.569,338.691 276.091,344.228 271.905 C 358.558 261.073,364.577 241.659,358.368 226.301 C 357.946 225.255,357.219 223.455,356.754 222.300 C 354.606 216.965,352.518 213.849,347.109 207.904 C 342.991 203.378,342.524 202.343,343.783 200.546 C 346.094 197.246,349.222 184.505,349.495 177.277 C 349.886 166.944,344.672 149.670,339.273 143.411 C 338.888 142.965,337.882 141.564,337.036 140.298 C 336.191 139.032,334.432 136.872,333.127 135.498 C 331.822 134.124,330.299 132.422,329.742 131.716 C 329.185 131.009,328.404 130.328,328.008 130.202 C 327.164 129.935,326.854 129.176,325.391 123.800 C 319.597 102.507,294.378 87.448,275.120 93.780 C 272.356 94.689,271.382 95.152,266.600 97.826 C 263.585 99.512,259.406 103.367,256.113 107.500 C 252.797 111.661,252.812 111.655,248.288 110.606 C 245.461 109.950,244.201 109.468,239.242 107.142 C 234.447 104.894,230.654 102.134,224.865 96.680 C 222.079 94.056,218.541 90.816,217.002 89.479 C 215.463 88.142,213.650 86.497,212.973 85.824 C 209.546 82.412,204.668 77.904,197.800 71.802 C 193.620 68.089,188.400 63.415,186.200 61.417 C 184.000 59.419,181.120 56.978,179.800 55.992 C 178.480 55.007,176.925 53.750,176.345 53.200 C 175.765 52.650,174.351 51.480,173.203 50.600 C 172.055 49.720,170.550 48.530,169.858 47.956 C 169.166 47.382,167.250 45.978,165.600 44.837 C 163.950 43.695,161.280 41.825,159.666 40.681 C 158.052 39.536,156.252 38.327,155.666 37.994 C 155.080 37.661,153.750 36.801,152.712 36.083 C 148.205 32.967,140.772 29.495,131.800 26.313 C 127.409 24.756,126.201 24.453,121.095 23.635 C 119.608 23.397,117.628 23.026,116.695 22.811 C 114.271 22.251,103.891 22.396,100.688 23.033 M305.312 125.784 C 309.472 126.894,315.174 129.222,316.754 130.455 C 317.279 130.865,317.866 131.200,318.059 131.200 C 318.396 131.200,319.190 131.763,324.054 135.450 C 330.827 140.584,338.506 151.674,340.638 159.400 C 341.003 160.720,341.643 163.060,342.060 164.600 C 347.054 183.000,339.592 204.258,324.777 213.843 C 311.068 222.711,292.100 221.596,279.814 211.200 C 276.690 208.557,276.460 207.797,278.900 208.189 C 286.166 209.355,291.286 208.682,296.400 205.889 C 319.420 193.315,313.418 153.316,287.876 149.088 C 275.882 147.103,266.686 153.396,262.230 166.638 C 259.212 175.607,259.061 160.274,262.058 149.275 C 267.102 130.774,285.851 120.590,305.312 125.784 M122.113 128.809 C 133.427 130.105,146.153 138.402,151.842 148.192 C 152.479 149.287,153.214 150.547,153.476 150.992 C 155.365 154.200,158.400 161.366,158.400 162.618 C 158.400 162.967,158.595 163.616,158.832 164.061 C 159.644 165.577,160.803 173.390,161.050 179.000 C 161.883 197.969,149.864 217.923,133.600 224.573 C 130.887 225.682,130.189 225.970,128.200 226.803 C 124.511 228.346,114.689 229.164,108.800 228.419 C 99.919 227.294,92.963 224.720,86.400 220.130 C 82.756 217.581,79.089 213.512,74.511 206.937 C 69.244 199.374,66.765 185.999,68.401 173.967 C 69.096 168.859,71.686 159.558,72.790 158.205 C 72.972 157.982,73.970 156.180,75.007 154.200 C 78.029 148.434,86.018 139.659,90.200 137.512 C 91.080 137.060,92.323 136.253,92.963 135.718 C 98.898 130.755,111.998 127.650,122.113 128.809 M122.985 152.341 C 97.227 160.765,94.116 202.448,118.600 211.094 C 144.847 220.364,164.729 188.957,149.300 162.600 C 144.369 154.177,132.053 149.375,122.985 152.341 M288.869 153.776 C 307.219 159.345,312.847 186.035,298.462 199.264 C 287.066 209.744,269.712 203.556,265.379 187.467 C 259.925 167.214,272.713 148.873,288.869 153.776 M135.546 157.250 C 151.335 162.683,155.948 185.988,144.222 201.088 C 134.689 213.365,115.234 210.017,108.677 194.971 C 100.043 175.158,117.276 150.965,135.546 157.250 M279.730 162.250 C 270.702 165.944,267.301 180.434,273.327 189.525 C 280.229 199.937,294.307 196.404,297.004 183.583 C 298.317 177.341,296.776 170.273,294.670 172.875 C 291.301 177.036,284.397 173.921,284.401 168.241 C 284.403 165.786,285.412 163.924,287.258 162.970 C 290.767 161.156,283.988 160.507,279.730 162.250 M127.047 166.082 C 121.136 168.141,116.800 175.385,116.800 183.200 C 116.800 202.092,137.640 206.444,143.619 188.800 C 145.387 183.582,143.986 172.401,142.086 176.570 C 140.980 178.998,136.767 179.678,134.036 177.871 C 130.244 175.362,130.240 169.557,134.029 167.319 C 137.195 165.449,131.675 164.471,127.047 166.082 M195.855 211.786 C 187.142 214.892,190.395 227.961,200.547 230.639 C 205.452 231.933,206.250 228.992,201.600 226.760 C 197.931 224.999,195.600 222.636,195.600 220.679 C 195.600 216.136,202.931 218.756,207.210 224.828 C 209.394 227.928,212.961 232.013,213.366 231.879 C 215.654 231.119,213.084 222.856,208.899 217.518 C 205.100 212.671,199.847 210.363,195.855 211.786 M257.154 211.737 C 252.842 213.323,251.591 215.605,251.622 221.826 C 251.658 229.052,253.477 232.462,254.333 226.909 C 255.269 220.846,259.305 215.517,261.218 217.821 C 262.020 218.788,261.113 222.932,259.717 224.675 C 257.636 227.273,257.377 227.849,257.968 228.562 C 259.846 230.824,264.414 226.291,265.603 220.987 C 266.812 215.591,261.749 210.046,257.154 211.737 M152.600 225.231 C 143.087 234.800,132.059 239.977,121.149 239.997 C 117.057 240.005,118.796 241.892,123.013 242.020 C 136.160 242.419,150.978 234.155,156.543 223.320 C 158.214 220.065,157.290 220.513,152.600 225.231 M322.364 232.689 C 320.087 233.448,315.324 236.623,314.246 238.101 C 312.808 240.071,313.833 240.255,318.178 238.807 C 324.646 236.653,324.884 238.126,319.239 245.356 C 307.218 260.753,290.304 265.868,261.600 262.787 C 238.231 260.278,220.245 260.170,204.800 262.443 C 198.226 263.411,189.486 264.870,183.600 265.982 C 174.527 267.697,170.354 268.344,165.200 268.837 C 162.670 269.079,160.486 269.347,160.347 269.433 C 159.211 270.134,138.851 269.536,132.718 268.622 C 113.037 265.690,94.422 257.011,87.149 247.379 C 84.963 244.483,85.074 244.451,91.432 246.115 C 98.316 247.916,99.931 247.414,96.477 244.548 C 85.728 235.628,73.063 236.831,69.174 247.142 C 66.669 253.786,68.174 260.781,71.022 255.723 C 74.176 250.121,76.978 246.768,77.986 247.391 C 78.876 247.942,82.824 253.667,84.209 256.418 C 88.182 264.306,100.184 278.552,111.000 288.215 C 134.110 308.862,163.267 323.327,194.400 329.589 C 232.922 337.337,265.734 325.846,288.591 296.600 C 289.451 295.500,290.811 293.880,291.613 293.000 C 293.086 291.386,296.800 286.170,296.800 285.717 C 296.800 285.583,297.486 284.556,298.325 283.436 C 299.164 282.316,300.493 280.320,301.279 279.000 C 305.969 271.127,308.098 267.400,309.741 264.190 C 311.179 261.380,312.011 260.261,313.494 259.144 C 319.006 254.991,323.996 249.427,327.002 244.083 C 329.396 239.826,329.952 239.827,333.345 244.100 C 335.542 246.867,336.400 246.569,336.400 243.039 C 336.400 235.687,329.229 230.400,322.364 232.689 M101.800 266.034 C 119.183 275.845,147.328 278.871,177.400 274.163 C 180.700 273.646,184.660 272.966,186.200 272.651 C 202.019 269.415,212.227 268.024,223.776 267.529 C 236.206 266.997,244.222 267.339,258.400 269.005 C 274.065 270.847,285.960 270.711,295.123 268.586 C 299.732 267.517,300.070 267.903,298.042 271.911 C 291.851 284.150,278.789 300.278,268.143 308.827 C 264.949 311.393,264.968 311.398,261.862 307.254 C 250.165 291.649,232.163 284.201,217.104 288.737 C 214.847 289.417,211.396 290.427,209.436 290.982 L 205.872 291.990 200.236 289.437 C 189.542 284.593,184.449 283.470,173.000 283.428 C 165.148 283.399,164.241 283.518,156.139 285.635 C 148.626 287.599,140.404 291.907,136.495 295.929 C 134.448 298.036,134.334 298.012,128.706 294.317 C 118.807 287.817,107.160 277.325,100.269 268.700 C 96.036 263.401,96.306 262.933,101.800 266.034 M180.600 288.117 C 193.743 290.195,203.581 295.059,214.380 304.820 C 219.020 309.015,220.347 309.764,219.166 307.522 C 217.948 305.210,214.945 300.927,213.160 298.956 C 210.681 296.219,210.695 295.778,213.300 294.632 C 218.880 292.175,226.906 291.182,231.559 292.372 C 232.352 292.574,233.810 292.947,234.800 293.200 C 242.897 295.268,251.015 300.623,256.592 307.574 C 261.882 314.167,261.376 315.139,250.355 319.557 C 242.696 322.627,239.003 323.550,229.235 324.835 C 225.923 325.271,211.130 325.374,207.600 324.985 C 203.343 324.516,192.573 322.769,190.200 322.161 C 188.880 321.823,186.450 321.223,184.800 320.827 C 183.150 320.431,180.810 319.797,179.600 319.419 C 178.390 319.040,175.960 318.282,174.200 317.733 C 165.940 315.157,150.326 308.263,143.600 304.223 C 142.830 303.760,141.750 303.150,141.200 302.866 C 138.492 301.470,137.819 300.567,138.477 299.208 C 140.434 295.168,153.871 289.151,163.400 288.048 C 165.600 287.793,167.940 287.517,168.600 287.435 C 170.680 287.175,176.859 287.526,180.600 288.117 M112.146 378.311 C 111.456 378.910,110.072 380.660,109.070 382.200 C 108.068 383.740,106.813 385.540,106.281 386.200 C 104.070 388.946,99.600 397.651,99.600 399.211 C 99.600 399.924,99.881 400.000,102.504 400.000 L 105.407 400.000 107.068 396.500 C 107.982 394.575,109.421 391.538,110.265 389.752 C 115.257 379.189,115.944 375.012,112.146 378.311 " stroke="none" fill="#0b1400" fill-rule="evenodd"></path>
        <path id="eyes-whites" d="M287.355 126.023 C 273.891 128.852,264.060 139.241,261.824 153.000 C 260.995 158.103,260.776 160.057,260.752 162.532 C 260.718 166.156,261.313 166.745,262.402 164.166 C 264.522 159.149,266.550 156.178,270.400 152.450 C 278.053 145.040,294.672 147.350,303.305 157.024 C 321.690 177.626,306.289 213.958,281.190 209.198 C 273.782 207.793,287.584 216.452,295.800 218.363 C 301.269 219.636,307.902 219.405,315.478 217.678 C 328.109 214.798,340.645 198.840,342.561 183.200 C 346.636 149.941,317.439 119.701,287.355 126.023 M110.200 129.661 C 102.013 131.597,96.027 133.892,93.361 136.118 C 92.722 136.651,91.611 137.390,90.890 137.759 C 87.043 139.732,78.802 148.488,76.161 153.408 C 75.337 154.944,74.278 156.830,73.807 157.600 C 71.840 160.818,69.413 169.677,68.796 175.890 C 67.186 192.112,71.946 205.773,82.898 216.362 C 92.128 225.285,107.420 229.636,122.284 227.566 C 125.224 227.157,133.784 224.273,134.238 223.539 C 134.353 223.353,134.725 223.200,135.066 223.200 C 135.648 223.200,136.424 222.725,140.800 219.685 C 143.316 217.937,148.668 212.587,150.723 209.765 C 152.541 207.269,155.200 203.236,155.200 202.976 C 155.200 202.891,155.634 201.872,156.165 200.711 C 168.100 174.617,154.588 139.547,129.329 131.056 C 124.357 129.385,114.431 128.661,110.200 129.661 M135.365 151.781 C 141.811 153.416,147.562 157.742,150.278 163.000 C 150.960 164.320,151.800 165.940,152.145 166.600 C 156.132 174.232,156.110 187.845,152.096 197.000 C 144.641 214.003,124.342 218.815,110.708 206.812 C 88.461 187.225,107.509 144.715,135.365 151.781 M287.339 163.622 C 282.828 166.511,285.082 174.000,290.462 174.000 C 292.360 174.000,292.649 173.868,294.106 172.337 C 298.325 167.901,292.456 160.343,287.339 163.622 M134.278 167.945 C 130.941 170.145,130.983 175.032,134.358 177.371 C 139.018 180.600,144.367 175.489,141.659 170.394 C 140.122 167.501,136.682 166.360,134.278 167.945 " stroke="none" fill="#feeb9e" fill-rule="evenodd"></path>
        <path id="face-green1" d="M93.600 57.330 C 78.199 61.735,77.523 83.230,92.699 85.982 C 101.493 87.576,105.667 78.718,97.803 75.146 C 95.552 74.123,94.635 74.218,93.013 75.642 C 90.634 77.731,88.819 75.863,90.216 72.764 C 91.992 68.826,97.330 67.250,101.800 69.345 C 108.530 72.498,111.186 80.117,109.416 91.200 C 108.179 98.947,108.181 98.638,109.359 100.182 C 111.250 102.661,115.251 103.075,117.206 100.994 C 117.719 100.447,118.365 100.000,118.641 100.000 C 121.432 100.000,120.010 78.982,117.075 76.848 C 116.107 71.144,115.200 72.985,115.200 72.388 C 115.200 69.967,110.661 62.894,107.524 60.426 C 103.989 57.646,97.524 56.208,93.600 57.330 M279.453 100.640 C 273.334 101.746,267.942 105.438,262.438 112.293 C 258.341 117.395,255.748 122.876,250.789 136.917 C 249.998 139.155,247.778 142.400,247.037 142.400 C 245.386 142.400,243.362 135.539,244.427 133.550 C 245.784 131.014,246.747 122.786,245.781 121.984 C 244.882 121.238,245.200 119.800,246.264 119.800 C 246.739 119.800,247.264 119.665,247.431 119.500 C 247.597 119.335,247.461 119.200,247.128 119.200 C 246.795 119.200,245.910 118.891,245.161 118.514 C 241.613 116.727,238.800 118.287,238.800 122.042 C 238.800 123.145,238.497 124.613,238.124 125.320 C 237.378 126.734,237.226 131.490,237.787 135.855 C 238.031 137.750,237.946 138.810,237.413 140.503 C 235.235 147.428,237.741 169.546,243.155 191.170 C 245.178 199.251,245.196 202.129,243.212 200.290 C 242.781 199.892,242.738 199.949,242.982 200.600 C 243.641 202.362,244.433 209.517,244.199 211.600 C 243.221 220.324,235.830 221.833,228.252 214.857 C 225.799 212.600,220.272 203.001,216.010 193.600 C 215.062 191.510,214.063 189.530,213.789 189.200 C 213.330 188.647,209.703 181.626,206.445 174.982 C 202.367 166.669,189.711 149.566,183.072 143.400 C 179.899 140.452,174.501 135.903,173.879 135.652 C 172.789 135.212,177.703 140.912,181.296 144.256 C 182.748 145.606,184.283 147.388,184.707 148.216 C 185.231 149.237,185.903 149.862,186.797 150.160 C 189.481 151.056,189.693 153.163,187.116 153.328 C 185.407 153.437,184.400 154.194,184.400 155.369 C 184.400 156.594,183.653 157.200,182.144 157.200 C 181.431 157.200,180.736 157.380,180.600 157.600 C 179.298 159.707,172.400 152.184,172.400 148.658 C 172.400 148.424,170.572 145.486,167.261 140.400 C 163.096 134.001,154.351 124.950,149.048 121.550 C 147.261 120.404,145.150 119.040,144.355 118.517 C 140.592 116.043,130.674 112.860,124.200 112.047 C 108.439 110.069,90.125 118.847,83.316 131.642 C 81.579 134.907,81.608 135.627,83.414 134.041 C 84.192 133.359,85.062 132.800,85.349 132.800 C 85.635 132.800,86.889 132.070,88.136 131.178 C 94.994 126.267,102.125 123.619,113.800 121.649 C 120.862 120.458,134.588 124.193,142.207 129.379 C 154.961 138.060,161.844 148.937,166.200 167.293 C 167.591 173.155,168.502 179.470,168.234 181.400 C 168.112 182.280,167.838 184.672,167.625 186.715 C 163.973 221.747,130.223 243.254,95.407 232.737 C 92.543 231.872,89.480 230.963,88.600 230.717 C 87.720 230.471,86.373 229.849,85.607 229.335 C 84.841 228.821,83.912 228.400,83.544 228.400 C 83.175 228.400,80.942 227.410,78.582 226.200 C 73.930 223.815,73.080 223.667,69.662 224.651 C 57.740 228.081,51.271 240.520,53.990 254.788 C 55.377 262.070,61.835 271.386,68.003 275.002 C 69.764 276.034,71.338 277.086,71.502 277.339 C 71.857 277.887,75.004 280.454,77.807 282.481 C 78.911 283.279,80.171 284.331,80.607 284.818 C 81.043 285.305,82.120 286.154,83.000 286.705 C 84.612 287.713,88.507 290.708,93.577 294.839 C 95.089 296.070,97.287 297.768,98.463 298.612 C 99.638 299.455,101.871 301.328,103.425 302.773 C 104.979 304.218,107.294 306.210,108.570 307.200 C 109.846 308.190,111.964 309.900,113.277 311.000 C 114.589 312.100,116.428 313.450,117.363 314.000 C 118.298 314.550,120.218 315.916,121.631 317.035 C 125.368 319.995,128.790 322.213,130.468 322.761 C 131.275 323.025,132.159 323.509,132.431 323.837 C 134.468 326.292,146.863 333.529,156.013 337.606 C 158.457 338.695,160.968 339.950,161.594 340.396 C 162.741 341.213,168.255 343.596,169.003 343.599 C 169.225 343.599,170.218 344.032,171.209 344.560 C 172.201 345.088,174.630 345.965,176.606 346.508 C 178.583 347.052,180.841 347.767,181.624 348.096 C 183.070 348.705,189.430 350.495,195.600 352.029 C 197.470 352.494,200.620 353.035,202.600 353.230 C 204.580 353.426,207.460 353.815,209.000 354.095 C 213.258 354.870,226.166 354.721,230.400 353.848 C 235.077 352.884,239.455 351.697,241.600 350.813 C 242.590 350.404,244.480 349.776,245.800 349.416 C 250.790 348.056,251.441 347.820,253.000 346.807 C 260.266 342.086,265.200 340.566,265.200 343.049 C 265.200 347.060,281.971 332.514,291.083 320.600 C 293.907 316.908,299.768 309.630,307.776 299.872 C 309.549 297.711,311.501 295.291,312.114 294.493 C 312.727 293.695,315.888 290.243,319.139 286.821 C 322.390 283.399,326.209 279.335,327.625 277.789 C 329.041 276.243,333.187 272.250,336.837 268.915 C 340.487 265.581,343.759 262.436,344.107 261.926 C 344.456 261.417,345.519 260.153,346.471 259.118 C 353.483 251.484,355.771 240.761,352.469 231.000 C 349.446 222.062,344.938 214.547,340.860 211.643 C 339.197 210.458,339.453 210.317,333.973 215.430 C 325.523 223.314,310.028 228.187,298.645 226.540 C 292.650 225.672,287.443 223.904,283.171 221.287 C 281.837 220.469,279.950 219.341,278.979 218.779 C 274.051 215.930,265.652 206.320,262.916 200.400 C 258.863 191.634,257.967 189.444,256.857 185.600 C 251.785 168.040,252.893 152.344,260.406 135.340 C 267.517 119.244,271.996 113.877,280.506 111.256 C 286.661 109.360,296.324 110.629,298.185 113.577 C 299.287 115.322,306.208 118.919,311.698 120.600 C 313.622 121.189,315.298 121.835,315.422 122.035 C 315.773 122.604,316.400 122.464,316.400 121.817 C 316.400 121.496,315.770 120.731,315.000 120.117 C 314.130 119.423,313.600 118.652,313.600 118.080 C 313.600 114.670,306.593 107.704,299.529 104.091 C 292.603 100.549,286.123 99.435,279.453 100.640 M262.428 211.830 C 268.408 215.931,267.654 225.129,261.000 229.253 C 259.475 230.198,258.458 230.184,257.200 229.200 C 255.804 228.108,255.372 228.204,254.943 229.700 C 254.079 232.712,251.624 229.977,250.888 225.181 C 249.329 215.040,255.946 207.385,262.428 211.830 M202.633 211.647 C 207.342 213.408,211.186 217.951,213.828 224.873 C 216.316 231.393,214.551 235.519,211.164 231.100 C 208.624 227.786,207.586 227.589,205.613 230.044 C 201.570 235.075,190.000 227.298,190.000 219.550 C 190.000 212.692,195.773 209.080,202.633 211.647 M157.958 220.549 C 159.401 222.289,151.344 232.402,145.346 236.378 C 137.618 241.501,124.614 244.404,119.314 242.190 C 116.251 240.910,118.048 239.505,123.400 238.995 C 134.877 237.901,142.741 233.989,152.106 224.711 C 157.099 219.765,157.230 219.672,157.958 220.549 M330.200 232.352 C 334.486 234.408,337.200 238.550,337.200 243.038 C 337.200 247.600,335.675 248.011,332.366 244.341 C 329.803 241.500,329.290 241.469,327.962 244.081 C 325.842 248.249,319.788 255.036,314.057 259.668 C 312.354 261.045,311.545 262.139,310.113 265.000 C 309.122 266.980,307.546 269.860,306.610 271.400 C 305.675 272.940,303.864 276.000,302.585 278.200 C 301.307 280.400,299.662 282.950,298.930 283.867 C 298.199 284.784,297.588 285.684,297.573 285.867 C 297.558 286.050,296.613 287.485,295.473 289.056 C 272.684 320.455,249.245 333.100,215.400 332.255 C 201.951 331.919,199.995 331.728,192.600 330.034 C 191.720 329.832,189.560 329.374,187.800 329.015 C 184.111 328.263,181.424 327.529,177.200 326.118 C 175.550 325.567,173.660 324.972,173.000 324.796 C 167.973 323.455,152.636 316.900,146.800 313.599 C 144.930 312.541,140.632 310.111,137.248 308.198 C 133.864 306.285,129.544 303.575,127.648 302.177 C 125.752 300.778,122.772 298.591,121.026 297.317 C 106.782 286.918,89.099 267.727,83.490 256.580 C 82.224 254.065,81.267 252.674,78.412 249.200 L 77.591 248.200 75.767 250.200 C 74.765 251.300,73.477 253.010,72.907 254.000 C 68.360 261.888,65.117 257.861,68.076 248.000 C 70.631 239.485,78.098 235.959,87.460 238.847 C 98.667 242.304,103.412 249.932,92.715 247.294 C 87.839 246.091,87.477 246.180,89.061 248.190 C 95.778 256.712,117.200 266.347,132.600 267.774 C 134.140 267.916,136.120 268.230,137.000 268.471 C 144.050 270.398,166.145 268.583,189.000 264.200 C 191.860 263.652,195.550 263.009,197.200 262.771 C 198.850 262.534,201.910 262.088,204.000 261.781 C 206.090 261.473,209.420 261.114,211.400 260.983 C 213.380 260.852,215.540 260.657,216.200 260.550 C 218.435 260.188,241.381 260.073,244.200 260.410 C 247.034 260.749,263.089 262.155,270.800 262.741 C 292.419 264.381,308.530 258.111,319.468 243.800 C 323.050 239.112,322.658 238.270,317.612 239.818 C 310.202 242.091,311.792 237.160,319.778 233.102 C 324.201 230.855,326.703 230.674,330.200 232.352 M84.990 346.558 C 83.384 347.258,82.797 348.689,82.523 352.573 L 82.296 355.800 83.725 357.510 C 84.510 358.451,86.052 359.930,87.151 360.799 C 95.440 367.351,97.471 370.462,97.663 376.896 C 97.957 386.749,92.352 387.337,83.000 378.434 C 77.214 372.925,66.832 368.901,61.717 370.185 C 60.628 370.458,56.865 375.086,53.409 380.400 C 50.977 384.141,50.424 385.028,48.057 389.000 C 47.064 390.666,44.538 396.669,43.723 399.300 C 43.518 399.962,44.997 400.000,70.946 400.000 L 98.385 400.000 98.650 398.900 C 99.142 396.864,103.069 389.575,105.713 385.792 C 106.325 384.916,107.565 383.073,108.469 381.695 C 111.245 377.466,113.833 375.593,115.120 376.880 C 116.248 378.008,115.177 381.045,109.368 393.200 C 107.949 396.170,106.790 398.915,106.794 399.300 C 106.800 399.964,110.449 400.000,177.771 400.000 L 248.742 400.000 248.554 397.700 C 248.451 396.435,248.200 394.050,247.997 392.400 C 247.793 390.750,247.515 386.894,247.378 383.832 C 247.005 375.502,246.919 375.404,242.312 378.109 C 238.073 380.598,233.007 382.808,230.653 383.195 C 229.524 383.381,226.620 384.078,224.200 384.744 C 217.855 386.491,215.289 386.867,209.000 386.973 C 201.506 387.099,194.860 386.374,188.000 384.683 C 185.690 384.113,182.720 383.433,181.400 383.172 C 177.325 382.364,174.324 381.352,170.996 379.664 C 169.238 378.772,166.720 377.647,165.400 377.164 C 164.080 376.682,162.539 375.964,161.976 375.570 C 161.412 375.176,160.474 374.733,159.890 374.587 C 159.307 374.440,157.968 373.708,156.916 372.960 C 155.752 372.133,154.527 371.600,153.790 371.600 C 152.551 371.600,148.189 369.687,145.369 367.907 C 144.506 367.362,142.540 366.515,141.000 366.024 C 139.460 365.533,137.750 364.867,137.200 364.542 C 135.245 363.389,132.971 362.444,131.198 362.047 C 126.325 360.958,124.984 360.770,119.600 360.419 C 111.591 359.896,109.590 358.877,102.490 351.700 C 102.001 351.205,101.388 350.800,101.129 350.800 C 100.870 350.800,99.724 350.156,98.581 349.369 C 94.304 346.424,88.198 345.161,84.990 346.558 " stroke="none" fill="#7bc201" fill-rule="evenodd"></path>
        <path id="shadow" d="M92.640 56.855 C 76.653 62.259,77.245 85.480,93.400 86.684 C 98.113 87.035,101.105 85.695,102.589 82.566 C 104.989 77.509,96.772 71.191,92.581 74.870 C 90.413 76.774,89.524 75.018,91.312 72.365 C 95.033 66.843,104.044 68.971,107.206 76.120 C 109.505 81.317,108.981 92.936,106.225 97.867 C 105.705 98.798,105.435 99.614,105.625 99.680 C 105.816 99.746,106.023 101.168,106.086 102.841 L 106.200 105.881 108.600 105.295 C 109.920 104.972,112.952 104.504,115.338 104.254 L 119.676 103.800 120.184 102.321 C 121.203 99.352,121.720 93.330,121.424 87.887 C 120.294 67.093,106.463 52.182,92.640 56.855 M103.925 58.419 C 109.089 60.797,115.200 68.367,115.200 72.388 C 115.200 73.985,116.107 76.144,117.075 76.848 C 120.010 78.982,121.432 100.000,118.641 100.000 C 118.365 100.000,117.719 100.447,117.206 100.994 C 115.251 103.075,111.250 102.661,109.359 100.182 C 108.181 98.638,108.179 98.947,109.416 91.200 C 111.186 80.117,108.530 72.498,101.800 69.345 C 97.330 67.250,91.992 68.826,90.216 72.764 C 88.819 75.863,90.634 77.731,93.013 75.642 C 94.635 74.218,95.552 74.123,97.803 75.146 C 105.667 78.718,101.493 87.576,92.699 85.982 C 83.127 84.246,78.806 74.663,83.550 65.690 C 87.763 57.720,96.013 54.775,103.925 58.419 M282.000 99.461 C 268.306 101.540,259.195 111.041,252.194 130.544 C 248.915 139.680,247.250 142.432,246.381 140.153 C 245.623 138.165,246.883 128.092,248.668 121.861 C 249.817 117.851,249.847 117.918,246.600 117.192 C 245.280 116.897,243.227 116.328,242.037 115.928 C 238.178 114.629,237.964 114.906,236.591 123.012 C 233.531 141.074,235.518 166.140,241.789 188.600 C 243.606 195.105,244.139 198.096,243.693 199.277 C 243.226 200.514,243.483 200.995,244.263 200.348 C 245.096 199.656,244.926 198.243,243.155 191.170 C 237.741 169.546,235.235 147.428,237.413 140.503 C 237.946 138.810,238.031 137.750,237.787 135.855 C 237.226 131.490,237.378 126.734,238.124 125.320 C 238.497 124.613,238.800 123.145,238.800 122.042 C 238.800 118.287,241.613 116.727,245.161 118.514 C 245.910 118.891,246.795 119.200,247.128 119.200 C 247.461 119.200,247.597 119.335,247.431 119.500 C 247.264 119.665,246.739 119.800,246.264 119.800 C 245.200 119.800,244.882 121.238,245.781 121.984 C 246.747 122.786,245.784 131.014,244.427 133.550 C 243.362 135.539,245.386 142.400,247.037 142.400 C 247.778 142.400,249.998 139.155,250.789 136.917 C 251.161 135.863,252.313 132.660,253.348 129.800 C 262.933 103.321,279.458 94.065,299.358 104.029 C 306.478 107.594,313.600 114.620,313.600 118.080 C 313.600 118.652,314.130 119.423,315.000 120.117 C 315.770 120.731,316.400 121.496,316.400 121.817 C 316.400 122.464,315.773 122.604,315.422 122.035 C 315.298 121.835,313.622 121.189,311.698 120.600 C 306.208 118.919,299.287 115.322,298.185 113.577 C 296.324 110.629,286.661 109.360,280.506 111.256 C 271.996 113.877,267.517 119.244,260.406 135.340 C 252.893 152.344,251.785 168.040,256.857 185.600 C 257.967 189.444,258.863 191.634,262.916 200.400 C 265.652 206.320,274.051 215.930,278.979 218.779 C 279.950 219.341,281.837 220.469,283.171 221.287 C 287.443 223.904,292.650 225.672,298.645 226.540 C 310.028 228.187,325.523 223.314,333.973 215.430 C 339.453 210.317,339.197 210.458,340.860 211.643 C 344.938 214.547,349.446 222.062,352.469 231.000 C 355.771 240.761,353.483 251.484,346.471 259.118 C 345.519 260.153,344.456 261.417,344.107 261.926 C 343.759 262.436,340.487 265.581,336.837 268.915 C 333.187 272.250,329.041 276.243,327.625 277.789 C 326.209 279.335,322.390 283.399,319.139 286.821 C 315.888 290.243,312.727 293.695,312.114 294.493 C 311.501 295.291,309.549 297.711,307.776 299.872 C 299.768 309.630,293.907 316.908,291.083 320.600 C 281.971 332.514,265.200 347.060,265.200 343.049 C 265.200 340.566,260.266 342.086,253.000 346.807 C 251.441 347.820,250.790 348.056,245.800 349.416 C 244.480 349.776,242.590 350.404,241.600 350.813 C 239.455 351.697,235.077 352.884,230.400 353.848 C 226.166 354.721,213.258 354.870,209.000 354.095 C 207.460 353.815,204.580 353.426,202.600 353.230 C 200.620 353.035,197.470 352.494,195.600 352.029 C 189.430 350.495,183.070 348.705,181.624 348.096 C 180.841 347.767,178.583 347.052,176.606 346.508 C 174.630 345.965,172.201 345.088,171.209 344.560 C 170.218 344.032,169.225 343.599,169.003 343.599 C 168.255 343.596,162.741 341.213,161.594 340.396 C 160.968 339.950,158.457 338.695,156.013 337.606 C 146.863 333.529,134.468 326.292,132.431 323.837 C 132.159 323.509,131.275 323.025,130.468 322.761 C 128.790 322.213,125.368 319.995,121.631 317.035 C 120.218 315.916,118.298 314.550,117.363 314.000 C 116.428 313.450,114.589 312.100,113.277 311.000 C 111.964 309.900,109.846 308.190,108.570 307.200 C 107.294 306.210,104.979 304.218,103.425 302.773 C 101.871 301.328,99.638 299.455,98.463 298.612 C 97.287 297.768,95.089 296.070,93.577 294.839 C 88.507 290.708,84.612 287.713,83.000 286.705 C 82.120 286.154,81.043 285.305,80.607 284.818 C 80.171 284.331,78.911 283.279,77.807 282.481 C 75.004 280.454,71.857 277.887,71.502 277.339 C 71.338 277.086,69.764 276.034,68.003 275.002 C 61.835 271.386,55.377 262.070,53.990 254.788 C 51.271 240.520,57.740 228.081,69.662 224.651 C 73.080 223.667,73.930 223.815,78.582 226.200 C 80.942 227.410,83.175 228.400,83.544 228.400 C 83.912 228.400,84.841 228.821,85.607 229.335 C 86.373 229.849,87.720 230.471,88.600 230.717 C 89.480 230.963,92.543 231.872,95.407 232.737 C 130.223 243.254,163.973 221.747,167.625 186.715 C 167.838 184.672,168.112 182.280,168.234 181.400 C 168.502 179.470,167.591 173.155,166.200 167.293 C 161.844 148.937,154.961 138.060,142.207 129.379 C 134.588 124.193,120.862 120.458,113.800 121.649 C 102.125 123.619,94.994 126.267,88.136 131.178 C 86.889 132.070,85.635 132.800,85.349 132.800 C 85.062 132.800,84.192 133.359,83.414 134.041 C 81.608 135.627,81.579 134.907,83.316 131.642 C 90.125 118.847,108.439 110.069,124.200 112.047 C 130.674 112.860,140.592 116.043,144.355 118.517 C 145.150 119.040,147.261 120.404,149.048 121.550 C 154.351 124.950,163.096 134.001,167.261 140.400 C 170.572 145.486,172.400 148.424,172.400 148.658 C 172.400 152.184,179.298 159.707,180.600 157.600 C 180.736 157.380,181.431 157.200,182.144 157.200 C 183.653 157.200,184.400 156.594,184.400 155.369 C 184.400 154.194,185.407 153.437,187.116 153.328 C 189.691 153.163,189.481 151.056,186.801 150.162 C 186.025 149.903,185.240 149.248,184.885 148.562 C 183.947 146.751,183.014 145.684,180.178 143.181 C 178.732 141.904,177.030 140.077,176.397 139.120 C 173.209 134.308,171.420 134.552,173.700 139.488 C 175.622 143.652,178.400 152.059,178.684 154.573 L 178.912 156.600 177.823 155.600 C 177.224 155.050,175.903 153.070,174.887 151.200 C 172.740 147.246,168.617 140.587,166.719 138.008 C 162.156 131.806,155.182 124.794,150.354 121.554 C 144.907 117.899,143.425 117.089,138.753 115.215 C 122.749 108.794,111.769 109.363,96.400 117.409 C 90.121 120.697,81.825 130.326,79.434 137.103 C 78.627 139.392,79.241 139.334,82.020 136.859 C 98.466 122.215,116.802 118.924,136.538 127.076 C 146.840 131.332,160.377 146.795,162.268 156.468 C 162.411 157.201,162.852 158.564,163.249 159.498 C 173.088 182.670,163.263 213.751,142.000 226.718 C 117.083 241.914,82.616 234.115,69.001 210.200 C 68.375 209.100,67.684 207.967,67.467 207.682 C 66.818 206.831,64.291 209.650,60.905 215.000 C 59.234 217.640,57.469 220.340,56.983 221.000 C 55.149 223.488,49.998 233.947,48.807 237.600 C 43.178 254.867,47.276 269.411,62.361 285.704 C 68.198 292.010,93.860 312.472,104.473 319.284 C 105.943 320.228,109.845 322.835,113.144 325.077 C 116.444 327.320,119.921 329.551,120.872 330.035 C 126.733 333.022,139.524 341.242,141.470 343.273 C 145.147 347.111,133.412 344.201,123.305 338.768 C 121.157 337.613,118.372 336.160,117.115 335.539 C 115.858 334.917,112.168 332.671,108.915 330.546 C 105.662 328.421,101.380 325.624,99.400 324.331 C 93.892 320.731,94.917 319.851,88.060 334.077 C 85.169 340.074,82.259 344.331,75.832 351.963 C 74.274 353.813,72.471 355.973,71.825 356.763 C 70.662 358.185,69.705 359.249,63.326 366.222 C 61.526 368.190,58.817 371.420,57.307 373.400 C 54.801 376.686,53.611 378.483,48.300 387.000 C 47.340 388.540,46.038 391.060,45.408 392.600 C 44.777 394.140,43.842 396.333,43.330 397.474 C 42.250 399.883,42.231 400.000,42.911 400.000 C 43.193 400.000,44.027 398.425,44.765 396.500 C 46.852 391.061,47.369 389.945,49.041 387.277 C 55.900 376.329,60.169 370.574,61.717 370.185 C 66.832 368.901,77.214 372.925,83.000 378.434 C 92.352 387.337,97.957 386.749,97.663 376.896 C 97.471 370.462,95.440 367.351,87.151 360.799 C 86.052 359.930,84.510 358.451,83.725 357.510 L 82.296 355.800 82.527 352.521 C 82.654 350.717,83.032 348.711,83.367 348.064 C 85.053 344.803,92.933 345.479,98.581 349.369 C 99.724 350.156,100.870 350.800,101.129 350.800 C 101.388 350.800,102.001 351.205,102.490 351.700 C 109.590 358.877,111.591 359.896,119.600 360.419 C 124.984 360.770,126.325 360.958,131.198 362.047 C 132.971 362.444,135.245 363.389,137.200 364.542 C 137.750 364.867,139.460 365.533,141.000 366.024 C 142.540 366.515,144.506 367.362,145.369 367.907 C 148.189 369.687,152.551 371.600,153.790 371.600 C 154.527 371.600,155.752 372.133,156.916 372.960 C 157.968 373.708,159.307 374.440,159.890 374.587 C 160.474 374.733,161.412 375.176,161.976 375.570 C 162.539 375.964,164.080 376.682,165.400 377.164 C 166.720 377.647,169.238 378.772,170.996 379.664 C 174.324 381.352,177.325 382.364,181.400 383.172 C 182.720 383.433,185.690 384.113,188.000 384.683 C 194.860 386.374,201.506 387.099,209.000 386.973 C 215.289 386.867,217.855 386.491,224.200 384.744 C 226.620 384.078,229.524 383.381,230.653 383.195 C 233.007 382.808,238.073 380.598,242.312 378.109 C 247.009 375.352,246.927 375.236,247.580 385.615 C 248.364 398.075,248.687 400.646,249.383 399.950 C 249.484 399.850,249.352 397.975,249.090 395.784 C 248.534 391.131,248.444 373.152,248.948 367.500 C 249.374 362.718,249.803 362.831,241.724 365.599 C 220.784 372.775,199.678 372.539,180.400 364.912 C 171.256 361.295,164.731 356.496,168.403 356.090 C 169.460 355.973,169.710 356.038,180.000 359.123 C 211.752 368.642,238.275 364.237,267.000 344.675 C 273.466 340.272,281.896 332.820,285.863 328.000 C 287.040 326.570,289.439 323.690,291.194 321.600 C 292.948 319.510,295.153 316.816,296.092 315.614 C 300.163 310.404,307.875 300.807,309.764 298.600 C 310.894 297.280,312.347 295.488,312.993 294.617 C 315.821 290.805,332.163 274.075,339.057 267.933 C 341.776 265.511,344.000 263.396,344.000 263.233 C 344.000 263.069,344.912 261.960,346.026 260.768 C 359.017 246.867,357.318 227.394,341.706 211.257 L 339.213 208.679 335.643 212.249 C 322.995 224.897,307.279 229.047,291.222 223.979 C 279.772 220.366,266.559 208.554,262.836 198.605 C 262.384 197.397,261.406 195.192,260.662 193.705 C 253.916 180.221,252.729 158.232,257.935 143.200 C 265.651 120.919,274.622 111.182,287.400 111.217 C 293.866 111.235,300.329 114.006,294.600 114.304 C 285.585 114.773,279.410 117.156,276.156 121.422 C 274.676 123.363,274.979 123.408,279.041 121.846 C 290.454 117.457,303.401 117.799,314.600 122.783 C 318.677 124.598,318.927 123.862,316.102 118.369 C 310.869 108.197,293.387 97.980,283.400 99.258 C 283.180 99.286,282.550 99.377,282.000 99.461 M284.509 168.000 C 284.509 168.990,284.587 169.395,284.682 168.900 C 284.778 168.405,284.778 167.595,284.682 167.100 C 284.587 166.605,284.509 167.010,284.509 168.000 M133.762 167.700 C 133.006 168.592,133.007 168.594,133.800 167.952 C 134.240 167.596,134.870 167.205,135.200 167.084 C 135.709 166.897,135.704 166.858,135.162 166.832 C 134.811 166.814,134.181 167.205,133.762 167.700 M310.493 173.600 C 310.493 174.370,310.575 174.685,310.676 174.300 C 310.776 173.915,310.776 173.285,310.676 172.900 C 310.575 172.515,310.493 172.830,310.493 173.600 M310.909 178.000 C 310.909 178.990,310.987 179.395,311.082 178.900 C 311.178 178.405,311.178 177.595,311.082 177.100 C 310.987 176.605,310.909 177.010,310.909 178.000 M160.901 180.200 C 160.905 181.080,160.987 181.393,161.083 180.895 C 161.179 180.398,161.175 179.678,161.075 179.295 C 160.975 178.913,160.896 179.320,160.901 180.200 M154.509 186.400 C 154.509 187.390,154.587 187.795,154.682 187.300 C 154.778 186.805,154.778 185.995,154.682 185.500 C 154.587 185.005,154.509 185.410,154.509 186.400 M256.963 211.121 C 252.788 212.583,251.342 214.636,250.849 219.801 C 250.184 226.761,253.492 234.759,254.943 229.700 C 255.372 228.204,255.804 228.108,257.200 229.200 C 258.871 230.507,260.589 230.027,263.269 227.503 C 269.979 221.182,265.021 208.301,256.963 211.121 M195.281 211.219 C 190.402 213.177,188.478 219.315,191.220 224.173 C 194.760 230.446,202.690 233.681,205.613 230.044 C 207.586 227.589,208.624 227.786,211.164 231.100 C 213.109 233.637,215.200 232.935,215.200 229.745 C 215.200 228.460,213.135 222.609,211.662 219.722 C 208.688 213.891,199.939 209.350,195.281 211.219 M201.007 211.782 C 203.716 212.598,206.797 214.836,208.899 217.518 C 213.084 222.856,215.654 231.119,213.366 231.879 C 212.961 232.013,209.394 227.928,207.210 224.828 C 202.931 218.756,195.600 216.136,195.600 220.679 C 195.600 222.636,197.931 224.999,201.600 226.760 C 204.143 227.981,204.600 228.352,204.600 229.195 C 204.600 232.374,198.846 231.145,194.466 227.029 C 187.030 220.041,191.765 209.001,201.007 211.782 M262.239 212.602 C 265.064 214.758,266.306 217.852,265.603 220.987 C 264.414 226.291,259.846 230.824,257.968 228.562 C 257.377 227.849,257.636 227.273,259.717 224.675 C 261.113 222.932,262.020 218.788,261.218 217.821 C 259.305 215.517,255.269 220.846,254.333 226.909 C 253.477 232.462,251.658 229.052,251.622 221.826 C 251.580 213.408,257.056 208.650,262.239 212.602 M144.985 216.500 L 143.000 218.600 145.100 216.615 C 146.255 215.523,147.200 214.578,147.200 214.515 C 147.200 214.217,146.829 214.549,144.985 216.500 M152.106 224.711 C 142.741 233.989,134.877 237.901,123.400 238.995 C 118.048 239.505,116.251 240.910,119.314 242.190 C 124.614 244.404,137.618 241.501,145.346 236.378 C 151.344 232.402,159.401 222.289,157.958 220.549 C 157.230 219.672,157.099 219.765,152.106 224.711 M157.200 221.620 C 157.200 224.361,149.005 233.384,143.491 236.714 C 137.293 240.457,122.878 243.355,119.487 241.540 C 118.365 240.939,119.376 240.001,121.149 239.997 C 132.059 239.977,143.087 234.800,152.600 225.231 C 156.501 221.306,157.200 220.758,157.200 221.620 M323.400 231.577 C 318.087 232.882,311.547 238.519,313.306 240.277 C 313.918 240.890,314.224 240.857,317.612 239.818 C 322.658 238.270,323.050 239.112,319.468 243.800 C 308.530 258.111,292.419 264.381,270.800 262.741 C 263.089 262.155,247.034 260.749,244.200 260.410 C 241.381 260.073,218.435 260.188,216.200 260.550 C 215.540 260.657,213.380 260.852,211.400 260.983 C 209.420 261.114,206.090 261.473,204.000 261.781 C 201.910 262.088,198.850 262.534,197.200 262.771 C 195.550 263.009,191.860 263.652,189.000 264.200 C 166.145 268.583,144.050 270.398,137.000 268.471 C 136.120 268.230,134.140 267.916,132.600 267.774 C 117.200 266.347,95.778 256.712,89.061 248.190 C 87.477 246.180,87.839 246.091,92.715 247.294 C 99.110 248.871,100.756 247.433,96.716 243.800 C 90.156 237.902,78.881 236.107,73.350 240.079 C 68.823 243.330,65.661 252.310,67.544 256.568 C 68.859 259.540,70.039 258.975,72.907 254.000 C 73.477 253.010,74.765 251.300,75.767 250.200 L 77.591 248.200 78.412 249.200 C 81.267 252.674,82.224 254.065,83.490 256.580 C 89.099 267.727,106.782 286.918,121.026 297.317 C 122.772 298.591,125.752 300.778,127.648 302.177 C 129.544 303.575,133.864 306.285,137.248 308.198 C 140.632 310.111,144.930 312.541,146.800 313.599 C 152.636 316.900,167.973 323.455,173.000 324.796 C 173.660 324.972,175.550 325.567,177.200 326.118 C 181.424 327.529,184.111 328.263,187.800 329.015 C 189.560 329.374,191.720 329.832,192.600 330.034 C 199.995 331.728,201.951 331.919,215.400 332.255 C 249.245 333.100,272.684 320.455,295.473 289.056 C 296.613 287.485,297.558 286.050,297.573 285.867 C 297.588 285.684,298.199 284.784,298.930 283.867 C 299.662 282.950,301.307 280.400,302.585 278.200 C 303.864 276.000,305.675 272.940,306.610 271.400 C 307.546 269.860,309.122 266.980,310.113 265.000 C 311.545 262.139,312.354 261.045,314.057 259.668 C 319.788 255.036,325.842 248.249,327.962 244.081 C 329.290 241.469,329.803 241.500,332.366 244.341 C 335.675 248.011,337.200 247.600,337.200 243.038 C 337.200 235.813,330.114 229.928,323.400 231.577 M329.800 232.957 C 333.745 234.829,336.400 238.885,336.400 243.039 C 336.400 246.569,335.542 246.867,333.345 244.100 C 329.952 239.827,329.396 239.826,327.002 244.083 C 323.996 249.427,319.006 254.991,313.494 259.144 C 312.011 260.261,311.179 261.380,309.741 264.190 C 308.098 267.400,305.969 271.127,301.279 279.000 C 300.493 280.320,299.164 282.316,298.325 283.436 C 297.486 284.556,296.800 285.583,296.800 285.717 C 296.800 286.170,293.086 291.386,291.613 293.000 C 290.811 293.880,289.451 295.500,288.591 296.600 C 267.788 323.217,241.090 334.376,205.800 331.204 C 192.028 329.966,175.139 325.503,160.400 319.206 C 145.516 312.848,133.411 305.793,119.663 295.463 C 106.489 285.564,89.421 266.767,84.209 256.418 C 82.824 253.667,78.876 247.942,77.986 247.391 C 76.978 246.768,74.176 250.121,71.022 255.723 C 68.174 260.781,66.669 253.786,69.174 247.142 C 73.063 236.831,85.728 235.628,96.477 244.548 C 99.931 247.414,98.316 247.916,91.432 246.115 C 85.074 244.451,84.963 244.483,87.149 247.379 C 94.422 257.011,113.037 265.690,132.718 268.622 C 138.851 269.536,159.211 270.134,160.347 269.433 C 160.486 269.347,162.670 269.079,165.200 268.837 C 170.354 268.344,174.527 267.697,183.600 265.982 C 189.486 264.870,198.226 263.411,204.800 262.443 C 220.245 260.170,238.231 260.278,261.600 262.787 C 290.304 265.868,307.218 260.753,319.239 245.356 C 324.884 238.126,324.646 236.653,318.178 238.807 C 312.223 240.791,312.035 239.035,317.788 235.150 C 322.564 231.926,326.220 231.258,329.800 232.957 M111.658 377.795 C 110.808 378.563,109.374 380.318,108.469 381.695 C 107.565 383.073,106.325 384.916,105.713 385.792 C 101.393 391.973,97.596 400.000,98.992 400.000 C 99.330 400.000,99.600 399.650,99.600 399.211 C 99.600 397.651,104.070 388.946,106.281 386.200 C 106.813 385.540,108.068 383.740,109.070 382.200 C 114.304 374.158,116.388 376.341,112.181 385.460 C 111.862 386.154,111.600 386.820,111.600 386.941 C 111.600 387.062,110.250 389.914,108.600 393.279 C 105.344 399.919,105.315 400.000,106.200 400.000 C 106.530 400.000,106.797 399.685,106.794 399.300 C 106.790 398.915,107.949 396.170,109.368 393.200 C 113.291 384.991,115.600 379.498,115.600 378.374 C 115.600 376.060,113.861 375.805,111.658 377.795 " stroke="none" fill="#34a906" fill-rule="evenodd"></path>
        <path id="mouth-dark" d="M97.400 264.400 C 96.044 266.594,117.030 286.650,128.706 294.317 C 134.334 298.012,134.448 298.036,136.495 295.929 C 140.404 291.907,148.626 287.599,156.139 285.635 C 164.241 283.518,165.148 283.399,173.000 283.428 C 184.449 283.470,189.542 284.593,200.236 289.437 L 205.872 291.990 209.436 290.982 C 211.396 290.427,214.847 289.417,217.104 288.737 C 232.163 284.201,250.165 291.649,261.862 307.254 C 264.968 311.398,264.949 311.393,268.143 308.827 C 278.789 300.278,291.851 284.150,298.042 271.911 C 300.070 267.903,299.732 267.517,295.123 268.586 C 285.960 270.711,274.065 270.847,258.400 269.005 C 244.222 267.339,236.206 266.997,223.776 267.529 C 212.227 268.024,202.019 269.415,186.200 272.651 C 153.489 279.342,120.845 276.783,101.800 266.034 C 97.934 263.852,97.775 263.793,97.400 264.400 M168.600 287.435 C 167.940 287.517,165.600 287.793,163.400 288.048 C 153.871 289.151,140.434 295.168,138.477 299.208 C 137.819 300.567,138.492 301.470,141.200 302.866 C 141.750 303.150,142.830 303.760,143.600 304.223 C 150.326 308.263,165.940 315.157,174.200 317.733 C 175.960 318.282,178.390 319.040,179.600 319.419 C 180.810 319.797,183.150 320.431,184.800 320.827 C 186.450 321.223,188.880 321.823,190.200 322.161 C 192.573 322.769,203.343 324.516,207.600 324.985 C 211.130 325.374,225.923 325.271,229.235 324.835 C 239.003 323.550,242.696 322.627,250.355 319.557 C 261.376 315.139,261.882 314.167,256.592 307.574 C 251.015 300.623,242.897 295.268,234.800 293.200 C 233.810 292.947,232.352 292.574,231.559 292.372 C 226.906 291.182,218.880 292.175,213.300 294.632 C 210.695 295.778,210.681 296.219,213.160 298.956 C 214.945 300.927,217.948 305.210,219.166 307.522 C 220.347 309.764,219.020 309.015,214.380 304.820 C 200.914 292.648,182.583 285.687,168.600 287.435 M180.349 289.013 C 188.081 290.129,194.512 292.264,200.551 295.721 C 206.945 299.381,207.311 299.647,212.861 304.647 C 218.482 309.710,219.863 310.697,220.475 310.085 C 221.306 309.254,217.788 302.888,214.145 298.628 C 212.383 296.569,212.444 296.124,214.619 295.192 C 227.292 289.760,243.367 294.256,254.427 306.326 C 260.275 312.708,260.395 313.773,255.559 316.360 C 246.728 321.083,237.585 323.366,222.800 324.539 C 218.802 324.856,205.139 324.028,200.400 323.182 C 197.870 322.730,194.810 322.202,193.600 322.007 C 189.987 321.427,175.351 317.507,172.693 316.407 C 172.202 316.204,170.090 315.409,168.000 314.641 C 165.910 313.872,163.256 312.784,162.102 312.222 C 160.948 311.660,159.785 311.200,159.518 311.200 C 157.692 311.200,139.693 301.280,139.282 300.047 C 138.793 298.580,145.350 294.348,152.009 291.833 C 160.604 288.586,170.538 287.598,180.349 289.013 " stroke="none" fill="#8e1a01" fill-rule="evenodd"></path>
        <path id="tongue-orange" d="M163.400 288.857 C 153.870 290.067,138.355 297.266,139.282 300.047 C 139.693 301.280,157.692 311.200,159.518 311.200 C 159.785 311.200,160.948 311.660,162.102 312.222 C 163.256 312.784,165.910 313.872,168.000 314.641 C 170.090 315.409,172.202 316.204,172.693 316.407 C 175.351 317.507,189.987 321.427,193.600 322.007 C 194.810 322.202,197.870 322.730,200.400 323.182 C 205.139 324.028,218.802 324.856,222.800 324.539 C 237.585 323.366,246.728 321.083,255.559 316.360 C 260.395 313.773,260.275 312.708,254.427 306.326 C 243.367 294.256,227.292 289.760,214.619 295.192 C 212.444 296.124,212.383 296.569,214.145 298.628 C 217.788 302.888,221.306 309.254,220.475 310.085 C 219.863 310.697,218.482 309.710,212.861 304.647 C 207.311 299.647,206.945 299.381,200.551 295.721 C 196.197 293.229,193.232 292.048,186.800 290.244 C 180.934 288.599,170.365 287.972,163.400 288.857 " stroke="none" fill="#ff6501" fill-rule="evenodd"></path>
        <path id="hair-orange" d="M241.622 198.757 L 241.600 200.115 238.049 199.847 C 233.284 199.487,228.282 200.351,225.319 202.046 C 222.168 203.849,221.991 204.510,223.765 207.857 C 230.126 219.855,241.797 222.850,243.647 212.959 C 244.200 209.997,243.446 201.855,242.372 199.200 L 241.644 197.400 241.622 198.757 M107.200 29.606 C 88.512 30.663,71.399 43.642,66.333 60.600 C 64.061 68.205,63.663 71.959,64.566 77.263 C 65.535 82.951,69.531 91.871,71.836 93.493 C 72.389 93.882,73.565 94.874,74.450 95.697 C 82.212 102.918,96.739 101.880,100.559 93.830 C 101.599 91.637,101.469 91.457,99.100 91.819 C 90.539 93.125,85.528 91.713,80.556 86.594 C 74.189 80.038,73.805 70.894,79.484 61.050 C 82.984 54.982,91.100 50.746,99.400 50.655 C 118.149 50.448,131.448 73.795,127.598 100.161 C 127.031 104.041,127.347 104.858,129.376 104.760 C 130.096 104.725,130.079 104.686,129.238 104.451 C 127.413 103.940,127.301 103.064,128.710 100.314 C 129.418 98.931,130.451 96.000,131.005 93.800 C 133.110 85.443,136.830 75.823,139.077 72.922 C 139.725 72.085,140.683 70.680,141.205 69.800 C 147.630 58.962,162.693 51.200,168.258 55.859 C 169.271 56.706,170.842 57.965,171.750 58.656 C 174.705 60.904,178.495 64.714,178.315 65.255 C 178.113 65.861,175.652 66.666,172.255 67.237 C 160.502 69.215,145.710 85.947,140.463 103.200 C 139.239 107.222,139.374 107.147,135.645 105.888 C 133.872 105.290,131.922 104.814,131.311 104.832 C 130.652 104.851,131.177 105.080,132.600 105.396 C 133.920 105.688,135.810 106.300,136.800 106.755 C 137.790 107.210,139.055 107.586,139.612 107.591 C 140.561 107.599,147.086 110.714,148.400 111.786 C 148.730 112.056,149.990 112.833,151.200 113.513 C 152.410 114.194,154.120 115.497,155.000 116.409 C 155.880 117.321,157.140 118.435,157.800 118.885 C 158.760 119.540,158.691 119.409,157.451 118.227 C 155.474 116.343,155.560 115.452,158.317 109.301 C 165.660 92.917,180.157 81.541,193.833 81.430 L 197.466 81.400 199.430 83.000 C 202.801 85.745,214.000 96.679,214.000 97.224 C 214.000 97.603,210.753 98.000,207.644 98.000 C 194.454 98.000,176.370 107.622,166.821 119.721 C 163.726 123.641,163.546 123.706,161.455 121.654 C 160.528 120.744,159.629 120.000,159.457 120.000 C 159.285 120.000,160.434 121.215,162.009 122.700 C 164.762 125.294,167.484 128.655,170.420 133.082 C 171.405 134.568,172.143 135.242,173.000 135.435 C 173.660 135.585,175.074 136.493,176.143 137.453 C 179.232 140.230,179.895 139.907,183.309 133.957 C 190.301 121.773,209.275 115.119,225.186 119.271 C 232.435 121.163,233.008 121.823,232.180 127.336 C 231.855 129.495,231.693 131.427,231.819 131.631 C 232.091 132.071,231.658 135.259,231.233 135.947 C 231.004 136.317,229.485 136.280,224.568 135.784 C 211.926 134.508,201.376 138.009,192.990 146.261 C 189.466 149.729,189.527 150.673,193.592 155.600 C 195.135 157.470,196.896 159.610,197.507 160.356 C 198.801 161.938,199.839 161.857,200.881 160.094 C 205.235 152.723,219.225 148.072,228.490 150.914 C 231.264 151.765,231.514 152.175,232.022 156.701 C 232.237 158.625,232.602 161.282,232.831 162.604 C 233.480 166.342,233.513 166.317,227.993 166.341 C 221.243 166.370,215.117 168.477,210.000 172.531 C 207.079 174.845,207.101 175.812,210.214 182.048 C 213.672 188.975,213.474 188.870,217.648 185.994 C 220.890 183.761,221.740 183.467,227.200 182.701 C 235.603 181.521,236.961 182.141,238.377 187.807 C 238.799 189.496,239.269 190.995,239.422 191.139 C 239.574 191.282,239.594 191.040,239.464 190.600 C 239.335 190.160,239.044 188.956,238.818 187.924 C 238.592 186.893,238.060 185.168,237.636 184.091 C 236.472 181.139,234.947 174.733,234.233 169.800 C 233.883 167.380,233.424 164.230,233.214 162.800 C 231.950 154.195,231.466 142.019,232.061 133.800 C 232.523 127.415,233.260 120.677,233.837 117.560 C 234.680 113.007,234.710 113.103,231.900 111.389 C 227.144 108.489,219.352 101.690,209.636 91.961 C 208.626 90.950,205.550 88.084,202.800 85.592 C 200.050 83.100,197.350 80.620,196.800 80.081 C 196.250 79.541,194.765 78.302,193.500 77.327 C 192.235 76.351,191.200 75.406,191.200 75.225 C 191.200 75.045,190.207 74.131,188.993 73.195 C 187.779 72.258,186.101 70.841,185.265 70.046 C 178.692 63.800,170.224 56.686,164.625 52.708 C 152.187 43.868,147.959 41.199,141.600 38.168 C 139.070 36.962,136.190 35.546,135.200 35.022 C 133.414 34.077,123.603 31.064,123.299 31.368 C 123.212 31.455,124.189 31.825,125.470 32.190 C 136.602 35.360,136.489 35.184,131.026 40.814 C 127.318 44.635,122.372 51.542,119.795 56.499 C 118.660 58.683,117.936 59.266,117.412 58.419 C 116.782 57.401,109.465 52.337,107.562 51.604 C 103.486 50.033,102.714 47.752,104.406 42.276 C 106.358 35.954,113.738 29.826,118.514 30.562 C 119.441 30.705,120.830 30.905,121.600 31.008 L 123.000 31.194 121.800 30.791 C 121.140 30.569,118.879 30.218,116.776 30.011 C 114.673 29.803,112.693 29.569,112.376 29.490 C 112.059 29.410,109.730 29.463,107.200 29.606" stroke="none" fill="#ff6501" fill-rule="evenodd"></path>
        <path id="hair-light" d="M114.800 31.066 C 108.443 33.793,103.600 40.605,103.600 46.820 C 103.600 49.263,104.591 50.459,107.562 51.604 C 109.465 52.337,116.782 57.401,117.412 58.419 C 117.936 59.266,118.660 58.683,119.795 56.499 C 122.372 51.542,127.318 44.635,131.026 40.814 C 136.202 35.479,136.132 35.289,128.090 32.904 C 119.608 30.388,117.168 30.050,114.800 31.066 M162.561 54.437 C 155.407 55.353,145.578 62.423,141.205 69.800 C 140.683 70.680,139.725 72.085,139.077 72.922 C 136.830 75.823,133.110 85.443,131.005 93.800 C 130.451 96.000,129.418 98.931,128.710 100.314 C 127.140 103.377,127.384 104.049,130.239 104.532 C 131.317 104.714,133.702 105.337,135.538 105.915 C 139.396 107.131,139.241 107.216,140.463 103.200 C 145.710 85.947,160.502 69.215,172.255 67.237 C 175.652 66.666,178.113 65.861,178.315 65.255 C 178.495 64.714,174.705 60.904,171.750 58.656 C 170.842 57.965,169.312 56.749,168.350 55.954 C 166.361 54.309,165.440 54.068,162.561 54.437 M191.000 81.459 C 177.824 83.424,165.031 94.322,158.317 109.301 C 155.502 115.583,155.442 116.368,157.632 118.284 C 158.585 119.118,160.223 120.586,161.273 121.546 C 163.610 123.684,163.721 123.648,166.821 119.721 C 176.370 107.622,194.454 98.000,207.644 98.000 C 210.753 98.000,214.000 97.603,214.000 97.224 C 214.000 96.682,202.821 85.764,199.447 83.010 C 197.432 81.366,194.830 80.888,191.000 81.459 M209.400 118.421 C 198.945 119.380,187.901 125.956,183.309 133.957 C 181.220 137.598,179.996 139.145,179.100 139.280 C 178.290 139.402,178.360 139.520,179.800 140.460 C 181.429 141.524,186.229 146.342,188.905 149.600 C 190.297 151.294,190.385 151.339,190.392 150.371 C 190.414 147.512,198.171 141.111,204.801 138.481 C 212.854 135.286,215.736 134.893,224.568 135.784 C 229.485 136.280,231.004 136.317,231.233 135.947 C 231.658 135.259,232.091 132.071,231.819 131.631 C 231.693 131.427,231.855 129.495,232.180 127.336 C 232.873 122.720,232.620 122.004,229.866 120.791 C 224.796 118.559,217.332 117.694,209.400 118.421 M218.172 150.393 C 210.296 151.505,203.803 155.148,200.881 160.094 C 200.088 161.437,198.985 161.852,198.119 161.133 C 197.765 160.840,198.028 161.410,198.702 162.400 C 201.680 166.771,205.191 172.419,206.522 174.980 L 207.967 177.760 207.884 176.017 C 207.677 171.707,218.746 166.380,227.993 166.341 C 233.513 166.317,233.480 166.342,232.831 162.604 C 232.602 161.282,232.237 158.625,232.022 156.701 C 231.806 154.776,231.439 152.847,231.208 152.414 C 230.318 150.752,223.316 149.667,218.172 150.393 M260.581 166.104 C 260.057 167.471,260.596 168.747,261.143 167.435 C 261.469 166.655,261.497 166.137,261.228 165.868 C 260.959 165.599,260.745 165.677,260.581 166.104 M208.000 178.143 C 208.000 178.578,210.787 184.000,211.010 184.000 C 211.120 184.000,210.557 182.695,209.758 181.100 C 208.260 178.107,208.000 177.670,208.000 178.143 M228.600 182.462 C 221.130 183.649,221.221 183.620,217.900 185.843 C 214.305 188.249,214.190 188.284,213.056 187.300 C 212.287 186.632,212.289 186.665,213.108 188.000 C 213.581 188.770,214.642 190.840,215.468 192.600 C 218.109 198.230,223.283 208.180,223.892 208.800 C 224.216 209.130,223.997 208.428,223.404 207.240 C 222.049 204.525,222.333 203.755,225.319 202.046 C 228.282 200.351,233.284 199.487,238.049 199.847 L 241.600 200.115 241.600 198.979 C 241.600 198.354,240.893 195.673,240.029 193.021 C 239.164 190.370,238.249 187.374,237.995 186.364 C 237.050 182.615,234.446 181.533,228.600 182.462 M243.701 206.200 C 243.705 207.080,243.787 207.393,243.883 206.895 C 243.979 206.398,243.975 205.678,243.875 205.295 C 243.775 204.913,243.696 205.320,243.701 206.200 M244.114 209.800 C 244.117 210.900,244.195 211.303,244.287 210.695 C 244.379 210.086,244.377 209.186,244.282 208.695 C 244.187 208.203,244.111 208.700,244.114 209.800 M225.072 210.745 C 229.203 218.372,239.550 221.885,242.593 216.694 L 243.352 215.400 241.961 216.866 C 238.510 220.503,230.699 218.283,226.668 212.519 C 224.783 209.825,224.255 209.237,225.072 210.745 " stroke="none" fill="#ffb200" fill-rule="evenodd"></path>
        <path id="iris-blue" d="M278.378 153.780 C 260.755 160.273,258.836 191.063,275.410 201.393 C 292.397 211.981,311.091 193.862,305.625 172.107 C 302.390 159.232,288.655 149.994,278.378 153.780 M126.200 156.561 C 102.978 161.496,99.206 198.997,121.106 207.207 C 136.814 213.095,151.616 199.574,150.671 180.200 C 149.921 164.807,138.646 153.916,126.200 156.561 M288.000 162.000 C 288.500 162.500,289.333 162.800,290.223 162.800 C 291.358 162.800,292.027 163.159,293.523 164.573 L 295.400 166.346 295.400 169.073 C 295.400 170.631,295.597 171.972,295.860 172.200 C 299.168 175.074,297.521 186.665,293.128 191.432 C 280.611 205.011,263.558 185.052,273.232 168.145 C 276.396 162.614,285.024 159.024,288.000 162.000 M133.908 165.628 C 134.583 165.863,135.235 166.313,135.355 166.628 C 135.486 166.968,136.124 167.200,136.928 167.200 C 139.829 167.200,142.400 170.231,142.400 173.651 C 142.400 174.868,142.592 175.588,142.953 175.727 C 144.585 176.353,145.006 184.675,143.615 188.800 C 137.664 206.446,116.800 202.089,116.800 183.200 C 116.800 172.152,125.878 162.828,133.908 165.628 " stroke="none" fill="#0a8fa8" fill-rule="evenodd"></path>
        <!-- <path id="background" d="M0.000 200.004 L 0.000 400.008 17.832 399.904 L 35.664 399.800 36.780 396.400 C 37.920 392.921,43.722 381.168,45.367 379.003 C 45.870 378.342,46.602 377.170,46.995 376.400 C 48.581 373.285,55.057 365.319,63.254 356.400 C 69.185 349.945,74.020 344.222,75.512 341.889 C 76.110 340.953,77.078 339.560,77.662 338.793 C 79.277 336.674,85.966 323.200,86.617 320.756 C 87.893 315.960,87.033 314.733,77.400 307.604 C 76.080 306.628,74.175 305.102,73.166 304.214 C 72.157 303.326,69.658 301.250,67.612 299.600 C 57.587 291.516,46.615 278.346,43.582 270.758 C 43.152 269.681,42.419 267.855,41.953 266.700 C 41.486 265.545,40.946 263.430,40.752 262.000 C 40.558 260.570,40.232 258.410,40.029 257.200 C 38.905 250.521,39.932 242.740,42.994 234.736 C 46.941 224.423,50.768 217.820,60.971 203.723 C 63.920 199.647,64.152 198.718,63.220 194.710 C 60.107 181.328,61.886 168.277,68.795 153.810 C 71.047 149.094,71.206 148.566,71.638 144.308 C 73.104 129.881,84.369 115.691,99.843 108.780 C 106.684 105.725,106.405 106.014,106.105 102.272 C 105.846 99.046,105.681 99.020,102.818 101.750 C 92.277 111.805,74.631 109.063,64.522 95.800 C 62.437 93.064,61.900 91.943,59.552 85.412 C 52.934 67.002,63.588 41.704,82.800 30.213 C 84.230 29.357,85.829 28.329,86.354 27.929 C 86.879 27.528,87.601 27.200,87.960 27.200 C 88.318 27.200,89.296 26.833,90.132 26.385 C 96.052 23.212,110.190 21.310,116.695 22.811 C 117.628 23.026,119.608 23.397,121.095 23.635 C 126.201 24.453,127.409 24.756,131.800 26.313 C 140.772 29.495,148.205 32.967,152.712 36.083 C 153.750 36.801,155.080 37.661,155.666 37.994 C 156.252 38.327,158.052 39.536,159.666 40.681 C 161.280 41.825,163.950 43.695,165.600 44.837 C 167.250 45.978,169.166 47.382,169.858 47.956 C 170.550 48.530,172.055 49.720,173.203 50.600 C 174.351 51.480,175.765 52.650,176.345 53.200 C 176.925 53.750,178.480 55.007,179.800 55.992 C 181.120 56.978,184.000 59.419,186.200 61.417 C 188.400 63.415,193.620 68.089,197.800 71.802 C 204.668 77.904,209.546 82.412,212.973 85.824 C 213.650 86.497,215.463 88.142,217.002 89.479 C 218.541 90.816,222.079 94.056,224.865 96.680 C 230.654 102.134,234.447 104.894,239.242 107.142 C 244.201 109.468,245.461 109.950,248.288 110.606 C 252.812 111.655,252.797 111.661,256.113 107.500 C 261.542 100.686,267.752 96.203,275.120 93.780 C 294.378 87.448,319.597 102.507,325.391 123.800 C 326.854 129.176,327.164 129.935,328.008 130.202 C 328.404 130.328,329.185 131.009,329.742 131.716 C 330.299 132.422,331.822 134.124,333.127 135.498 C 334.432 136.872,336.191 139.032,337.036 140.298 C 337.882 141.564,338.888 142.965,339.273 143.411 C 344.672 149.670,349.886 166.944,349.495 177.277 C 349.222 184.505,346.094 197.246,343.783 200.546 C 342.524 202.343,342.991 203.378,347.109 207.904 C 352.518 213.849,354.606 216.965,356.754 222.300 C 357.219 223.455,357.946 225.255,358.368 226.301 C 364.577 241.659,358.558 261.073,344.228 271.905 C 338.691 276.091,323.595 291.569,316.600 300.232 C 315.500 301.595,312.800 304.934,310.600 307.654 C 308.400 310.373,306.077 313.318,305.438 314.199 C 304.798 315.079,303.259 316.970,302.016 318.400 C 300.774 319.830,298.605 322.440,297.197 324.200 C 294.595 327.453,284.090 338.876,283.448 339.151 C 283.255 339.233,282.161 340.133,281.017 341.151 C 275.124 346.389,269.536 350.783,262.201 355.944 L 257.801 359.039 257.159 361.420 C 256.523 363.779,255.689 369.214,254.759 377.081 C 254.213 381.688,254.431 387.324,255.449 394.956 L 256.121 400.000 328.061 400.000 L 400.000 400.000 400.000 200.000 L 400.000 0.000 200.000 0.000 L 0.000 0.000 0.000 200.004" stroke="none" fill="#0a8fa8" fill-rule="evenodd"></path> -->
    </g>
</svg>